<svg xmlns="http://www.w3.org/2000/svg" xmlns:xlink="http://www.w3.org/1999/xlink" version="1.1" id="Layer_1" x="0px" y="0px" style="enable-background:new 0 0 841.89 595.28;" xml:space="preserve" viewBox="147.69 148.34 546.51 298.61"><style type="text/css">	.st0{fill:#FFFFFF;}</style><g><g><path class="st0" d="M394.99,346.57c-1.3,0-2.63,0.17-3.89-0.06c-1.04-0.2-2.35-0.61-2.92-1.38c-4.96-6.84-9.78-13.77-14.44-20.4    l-14.59-20.82c-7.05-10.05-13.57-19.34-20.21-28.79c20.54-25.47,40.94-50.76,61.98-76.84c-1.89,0.35-2.73,0.43-3.52,0.67    c-29.34,8.54-58.7,17.01-87.97,25.76c-3.91,1.17-5.91,0.41-8.16-2.85c-13.03-18.84-26.27-37.54-39.45-56.28    c-3.82-5.43-7.66-10.84-12.18-17.24c-0.22,2.87-0.39,4.42-0.45,5.97c-1.21,28.08-2.47,56.16-3.52,84.25    c-0.13,3.47-1.19,5.01-4.58,5.98c-29.11,8.33-58.17,16.84-87.24,25.32c-1.38,0.4-2.71,0.96-4.93,1.75c2,0.73,2.94,1.1,3.89,1.42    c28.79,9.67,57.56,19.39,86.39,28.94c2.87,0.95,3.79,2.26,3.62,5.23c-0.65,11.37-1.24,22.74-1.48,34.12    c-0.08,4.09-1.3,5.37-5.49,5.34c-27.57-0.18-55.14-0.09-82.7-0.09c-1.68,0-3.35,0-5.35,0c0,2.27,0,3.97,0,5.68    c-0.04,31.57-0.08,63.14-0.11,94.7c182.17,0,364.34,0,546.51,0c0-33.45,0-66.89,0-100.34    C594.46,346.6,494.72,346.58,394.99,346.57z M230.2,274.93c-1.33-0.45-2.63-0.98-4.05-2.39c5.09-1.54,10.16-3.11,15.26-4.61    c7.58-2.24,15.15-4.55,22.79-6.6c2.41-0.65,3.12-1.76,3.2-4.17c0.41-11.8,1.02-23.6,1.58-35.4c0.07-1.39,0.24-2.78,0.48-5.49    c1.76,2.3,2.88,3.66,3.89,5.1c6.46,9.19,13,18.34,19.28,27.65c1.77,2.62,3.46,3.09,6.41,2.19c12.36-3.78,24.79-7.33,37.2-10.96    c0.27,0.29,0.53,0.59,0.8,0.88c-8.81,10.97-17.62,21.93-26.59,33.09c8.14,11.64,16.19,23.15,24.23,34.65    c-0.19,0.28-0.38,0.56-0.56,0.83c-4.31-1.41-8.62-2.8-12.93-4.24c-8.19-2.73-16.44-5.3-24.53-8.3c-3.09-1.15-4.67-0.28-6.51,2.06    c-7.12,9.07-14.41,18-21.64,26.97c-0.95,1.17-1.97,2.29-3.7,4.28c0-5.63-0.13-10.02,0.03-14.4c0.3-8.2,0.63-16.41,1.24-24.59    c0.24-3.26-0.65-4.87-3.91-5.9C251.44,282.22,240.83,278.52,230.2,274.93z M204.26,375.55c-2.11,0.57-4.48,0.17-7.34,0.17    c0,16.86,0,33.16,0,49.57c-3.05,0-5.48,0-8.53,0c0-16.34,0-32.63,0-49.22c-3.41-0.2-6.22-0.37-9.33-0.55c0-2.57,0-4.94,0-7.89    c8.5,0,16.95-0.11,25.39,0.19c0.76,0.03,1.97,2.68,1.99,4.14C206.45,373.2,205.28,375.28,204.26,375.55z M236.33,424    c-1.73-1.9-1.42-5.64-2.02-8.69c-3.22,0-6.2,0-9.04,0c-1.05,3.43-1.37,7.14-3.28,9.63c-0.94,1.23-4.82,0.21-8.08,0.21    c0.95-4.99,1.83-9.71,2.75-14.43c2.56-13.11,5.3-26.18,7.6-39.34c0.69-3.97,2.99-3.8,5.84-3.87c2.75-0.06,4.41,0.36,5.01,3.71    c2.95,16.41,6.22,32.77,9.35,49.15c0.28,1.49,0.37,3.02,0.66,5.58C241.65,425.3,237.86,425.67,236.33,424z M278.45,425.08    c-7.22,0-14.47,0-22.17,0c-0.09-1.37-0.26-2.75-0.26-4.14c-0.02-16.25,0.08-32.51-0.08-48.76c-0.04-3.57,1.05-4.67,4.63-4.73    c3.79-0.07,4.52,1.42,4.48,4.81c-0.16,13.38-0.06,26.75-0.06,40.13c0,1.55,0,3.1,0,5.12c4.73,0,8.98,0,13.47,0    C278.45,420.22,278.45,422.47,278.45,425.08z M313.88,375.59c-5,0-9.84,0-15.16,0c0,5.69,0,10.53,0,15.86c4.37,0,8.61,0,13.23,0    c0,2.82,0,5.16,0,8.17c-4.27,0-8.64,0-13.21,0c0,6.2,0,11.75,0,17.74c4.95,0,9.78,0,14.96,0c0,2.77,0,5.11,0,7.77    c-7.8,0-15.62,0-23.7,0c-0.1-1.43-0.26-2.69-0.26-3.95c-0.02-16.4,0.07-32.81-0.09-49.21c-0.03-3.38,0.92-4.59,4.35-4.48    c6.57,0.2,13.16,0.06,19.89,0.06C313.88,370.53,313.88,372.79,313.88,375.59z M357.08,424.67c-6.51,1.94-7.45,1.52-9.77-4.53    c-3.37-8.78-6.69-17.58-10.67-26.25c0,10.27,0,20.53,0,31.17c-2.94,0-5.57,0-8.53,0c0-18.86,0-37.79,0-56.92    c7.27-1.3,7.53-1.17,9.86,4.97c3.2,8.43,6.39,16.87,10.41,25.23c0-10.03,0-20.07,0-30.43c3.19,0,5.83,0,8.71,0    C357.08,387.06,357.08,405.87,357.08,424.67z M281.56,346.31c4.26-5.35,7.87-9.93,11.53-14.47c7.4-9.19,7.42-9.22,18.78-5.45    c16.96,5.62,33.9,11.28,50.84,16.95c1.95,0.65,3.85,1.5,5.56,2.97C339.8,346.31,311.33,346.31,281.56,346.31z M393.78,375.74    c-2.15,0.03-4.3,0.01-7.06,0.01c0,16.63,0,32.92,0,49.44c-3.14,0-5.67,0-8.69,0c0-16.24,0-32.41,0-49.17    c-3.55-0.17-6.37-0.31-9.4-0.46c0-2.71,0-5.07,0-7.97c8.56,0,16.88-0.03,25.19,0.02c2.95,0.02,2.38,2.3,2.39,4.09    C396.22,373.49,396.74,375.7,393.78,375.74z M462.96,421.85c-0.09,1.27-2.52,3.32-3.96,3.39c-6.9,0.36-13.84,0.19-20.76,0.17    c-3.24-0.01-4.66-1.82-4.65-4.94c0.01-3.02,0.26-6.08-0.07-9.07c-0.47-4.32,1.35-5.74,5.4-5.11c0.97,0.15,1.96,0.12,3.69,0.22    c0,3.9,0,7.3,0,10.8c4,0,7.56,0,11.34,0c0.72-6.06,1.41-11.51-5.02-15.48c-4.59-2.84-8.46-6.91-12.41-10.68    c-1.35-1.29-2.63-3.3-2.78-5.08c-0.39-4.58-0.51-9.26,0.06-13.79c0.21-1.69,2.58-4.32,4.1-4.41c7.18-0.46,14.41-0.37,21.6-0.02    c1.26,0.06,3.34,2.2,3.47,3.52c0.43,4.68,0.17,9.41,0.17,14.31c-3.13,0-5.79,0-8.84,0c0-3.32,0-6.29,0-9.58    c-4.04,0-7.69,0-11.14,0c-2.36,6.63,0.74,10.8,5.54,14.53c4.2,3.26,8.13,6.87,12.07,10.46c1,0.92,2.17,2.29,2.22,3.5    C463.24,410.34,463.37,416.12,462.96,421.85z M500.89,375.53c-3.04,0.16-5.87,0.31-9.14,0.49c0,16.36,0,32.57,0,49.2    c-3.28,0-5.81,0-8.81,0c0-16.4,0-32.6,0-49.09c-3.36-0.25-6.3-0.47-9.42-0.71c0-2.6,0-4.86,0-7.5c9.14,0,18.12,0,27.37,0    C500.89,370.48,500.89,372.84,500.89,375.53z M540.94,419.54c-0.01,4.82-1.02,5.84-5.83,5.88c-6.34,0.05-12.68-0.01-19.03,0    c-2.94,0-4.68-1.31-4.68-4.37c-0.02-17.55-0.01-35.1-0.01-53.07c2.88,0,5.51,0,8.67,0c0,16.41,0,32.72,0,49.35    c4.4,0,7.97,0,12.03,0c0-16.49,0-32.81,0-49.42c3.13,0,5.77,0,8.85,0c0,5.34,0,10.35,0,15.35    C540.95,395.35,540.97,407.45,540.94,419.54z M584.08,415.4c-0.06,5.25-4.03,9.66-9.05,9.9c-6.6,0.31-13.22,0.08-20.14,0.08    c0-19.2,0-38.13,0-57.67c6.97,0,13.59-0.31,20.17,0.1c5,0.31,9,4.93,9.05,10C584.23,390.33,584.23,402.87,584.08,415.4z     M606.53,421.35c0,1.25-0.21,2.51-0.34,3.91c-2.89,0-5.45,0-8.4,0c-0.13-1.51-0.35-2.9-0.35-4.28    c-0.02-16.25,0.07-32.5-0.07-48.75c-0.03-3.49,0.94-4.77,4.6-4.78c3.64-0.01,4.67,1.23,4.64,4.72    C606.48,388.56,606.56,404.95,606.53,421.35z M644.06,425.46c-6.2-0.13-12.41-0.11-18.62,0c-3.75,0.06-5.68-1.46-5.67-5.33    c0.03-15.71,0.02-31.42,0.02-47.13c0-3.53,1.76-5.39,5.28-5.41c6.49-0.04,12.99-0.04,19.48,0.01c3.42,0.02,4.87,1.87,4.85,5.23    c-0.06,7.93-0.02,15.85-0.02,23.78c-0.01,7.78-0.09,15.57,0.03,23.35C649.47,423.74,647.99,425.54,644.06,425.46z"/><path class="st0" d="M629.13,417.23c3.91,0,7.45,0,11.11,0c0-13.84,0-27.41,0-41.21c-3.79,0-7.32,0-11.11,0    C629.13,390.13,629.13,403.68,629.13,417.23z"/><path class="st0" d="M570.24,375.9c-2.11-0.14-4.23-0.03-6.57-0.03c0,13.95,0,27.43,0,41.59c2.27,0,4.27,0.13,6.24-0.03    c3.33-0.27,5.3-1.96,5.29-5.52c-0.02-10.23-0.02-20.45-0.01-30.68C575.19,377.91,573.48,376.13,570.24,375.9z"/><path class="st0" d="M229.15,386.44c-1.02,6.7-2.04,13.41-3.1,20.37c2.64,0,4.67,0,7.11,0c-1.09-7.11-2.12-13.83-3.15-20.55    C229.72,386.31,229.44,386.37,229.15,386.44z"/></g><g><path class="st0" d="M473.7,263.81c1.19-2.99,3.23-6.11,1.4-9.63c-0.24-0.78-0.8-1.09-1.58-1.06c-0.53-0.51-1.1-0.52-1.71-0.16    c-2.41,0.34-5.04-0.08-6.93,2.01c-0.65,0.26-1.31,0.53-1.96,0.79c-0.24-0.12-0.44-0.07-0.59,0.16c-0.73-0.11-1.28,0.11-1.55,0.84    c-0.34,0.21-0.67,0.44-1.03,0.62c-6.09,3.19-11.77,7.59-12.95,14.3c-1.81,10.31-7.11,18.49-12.85,26.65    c-0.81,1.15-1.91,2.99-3.78,2.1c-1.42-0.67-1.35-2.42-1.27-3.85c0.41-7.77,1.4-15.38,5.87-22.09c0.69-1.04,1.33-2.3,1.45-3.5    c0.14-1.45-0.55-2.84-2.1-3.44c-1.65-0.63-2.31,0.68-3.03,1.72c-0.89,1.29-1.68,2.63-2.52,3.95c-0.26,0.27-0.51,0.55-0.77,0.82    l-0.07,0.07c-0.55,0.56-1.1,1.12-1.64,1.68l-0.09,0.09c-0.25,0.25-0.51,0.5-0.76,0.76l-0.11,0.11c-0.25,0.25-0.51,0.5-0.76,0.76    l-0.11,0.11c-0.25,0.25-0.5,0.5-0.76,0.75l-0.1,0.1c-2.21,1.42-4.12,3.18-5.82,5.18c-13.51,11.06-26.3,22.97-40.21,33.57    c-1.59,0.69-3.17,1.39-4.76,2.08c-3.42,1.91-6.96,4.1-10.64,0.89c-2.52-2.2-1.44-7.14,2.34-12.54c0.36-1.1,0.71-2.2,1.07-3.29    c8.61-12.37,20.02-21.82,32-30.67c3.64-2.56,7.32-5.07,10.9-7.7c2.26-1.66,3.63-4.39,2.62-6.72c-1.09-2.5-3.79-0.84-5.78-0.28    c-3.87,1.09-7.72,2.23-11.57,3.4c-5.36,1.63-10.69,3.6-16.44,2.89c-4.47-0.55-5.19-2.24-2.63-5.94    c8.45-12.21,20.67-19.73,33.57-26.22c1.66-0.83,5.3-2.46,6.18,2.29c0.37,1.99,3.07,3.41,5.09,2.41c2.39-1.19,4.53-3.33,4.28-6.45    c-0.23-2.89-2.5-3.98-4.99-4.63c-2.13-0.55-4.16-0.44-6.34,0.19c-11.89,3.4-21.72,10.33-30.91,18.18    c-4.54,3.88-9.43,8.05-11.08,14.02c-2.33,8.42-1.29,13.45,8.75,13.19c4.7-0.12,8.94-1.73,13.17-3.48    c1.13,0.15,2.32,0.33,0.77,1.65c-1.63,1.39-3.3,2.74-5.01,4.02c-10.39,7.75-19.71,16.5-26.19,27.91c1.05,0.21,2.39-0.14,3.12,0.67    c-0.73-0.81-2.07-0.46-3.12-0.67c-0.28,0.04-0.55,0.09-0.83,0.14c-1.72,4.23-3.74,8.34-4.54,12.9c-0.67,3.83,0.52,7.22,3.17,9.74    c2.88,2.73,6.32,2.72,9.89,0.7c1.82-1.04,4.02-1.43,6.04-2.11c0.14-0.14,0.16-0.3,0.06-0.47c0.6-0.6,1.21-1.2,1.81-1.8l0.06-0.04    c14.76-9.47,27.48-21.46,40.68-32.85c2.06-0.97,3.63-2.55,5.24-4.09c0.71-0.68,1.59-1.64,2.49-1.2c0.99,0.5,0.12,1.81,0.37,2.73    c-1.35,5.61-2.42,11.27-0.88,17c1.2,4.45,4.32,5.44,7.7,2.45c2.69-2.38,5.11-5,6.87-8.23c4.04-7.44,8.21-14.85,10.59-22.98    c2.15-7.34,7.3-11.54,13.53-14.97c0.99,0.11,1.75-0.37,2.46-0.96l0.11-0.03c1.7-0.14,3.41-0.36,5.07,0.27    c0.09,0.52,0.19,1.04,0.28,1.57c-3.82,7.64-8.68,14.47-14.81,20.51c-3.67,3.61-6.7,7.87-9.97,11.89    c-1.72,2.12-1.96,5.03-0.62,6.83c1.57,2.1,3.89,0.19,5.73-0.9c4.89-2.89,7.95-7.64,11.7-11.66c1.71-1.84,2.27-1.38,3.23,0.25    c0.72,3.21,0.77,6.55,2.08,9.65c0.51,1.19,0.67,2.81,2.46,2.16c1.47-0.54,2.91-1.51,2.49-3.51c-1.2-5.6-1.94-11.26-2.34-16.97    c-0.15-2.1-1.13-3.24-3.42-2.35c-0.92,1.61-1.84,3.22-2.76,4.83c-3.67,4.19-7.15,8.6-12.56,10.94    c5.06-5.97,10.11-11.95,15.17-17.92C470.14,270.57,472.3,267.34,473.7,263.81z"/><path class="st0" d="M684.02,247.79c-3.63,1.86-7.34,3.6-9.97,7.09c-3.05,4.04-7.62,6.47-11.51,9.61c-2.82,2.27-5.75,1-7.8-0.74    c-4.4-3.74-5.09-3.77-7.5,1.67c-0.4,0.9-0.95,1.74-1.42,2.61c0.27,2.26,0.55,4.52,0.82,6.78c-0.27-2.26-0.55-4.52-0.82-6.78    c-0.95,1.38-1.91,2.76-2.86,4.13c-3.01,1.85-4.55,5.43-8.28,7.09c0.19-2.94,0.74-5.4,2.07-7.62c3.96-6.63,8-13.2,11.92-19.86    c0.75-1.28,1.95-2.91,0.64-4.3c-1.18-1.25-3.08-0.91-4.5-0.28c-6.05,2.68-11.2,6.48-14.09,12.65c-0.85,1.83-1.46,4.4,0.07,5.71    c2.64,2.26,1.43,4.06,0.36,6.27c-0.81,1.67-1.29,3.49-1.94,5.23c-0.87,2.35-0.89,4.45,1.35,6.17c2.12,1.63,4.26,1.5,6.45,0.33    c3.23-1.73,5.59-4.44,7.83-7.24c0.63-0.26,1.26-0.52,1.89-0.78l0,0l0.15,0.15c0.17,0.42,0.35,0.84,0.52,1.26    c0.07,2.22,1.8,2.78,3.45,3.11c2.07,0.41,2.47-1.56,3.29-2.79c1.01-1.51,1.01-4.63,2.65-4.53c3.26,0.2,5.42-1.81,8.14-2.93    c-0.07,7.23,3.35,9.81,9.39,7.42c0.04-0.48,0.06-0.96,0.22-1.37c-0.16,0.4-0.18,0.89-0.22,1.37c3.37-1.29,6.43-3.21,9.04-5.59    c5.22-4.77,10.58-9.6,10.79-17.51C693.9,249.32,688.22,245.64,684.02,247.79z M638.87,257.19c-0.92,2.71-2.22,5.18-4.54,7.01    C634.61,261.1,636.24,258.84,638.87,257.19z M677.76,269.55c0.67,1.48,0.87,2.8,0.31,3.8    C678.63,272.34,678.43,271.03,677.76,269.55c-0.86,0.48-1.71,0.97-2.57,1.44c-1.06,0.59-2.42,0.84-3.13-0.01    c-0.96-1.15,0.64-1.74,1.11-2.63c2.7-5.2,5.95-9.97,10.02-14.21c1.3-1.35,2.65-2.2,4.49-1.74c1.87,0.48,1.4,2.23,1.7,3.55    C687.49,262.17,682.79,266,677.76,269.55z"/><path class="st0" d="M609.25,266.08c-2.14-0.04-4.55,0.43-6.37-0.39c-3.95-1.77-6.11-0.18-8.32,2.83    c-3.47,4.72-7.96,8.3-13.46,10.47c-0.65,0.26-1.46,1.08-2.26,0.1c-1.18-1.45,0.52-1.62,1.05-2.21c4.06-4.46,8.18-8.87,12.26-13.31    c1.05-1.14,2.67-2.44,1.52-4.04c-1.31-1.82-3.32-1.02-5.09-0.33c-3.14,1.22-6.29,2.42-9.43,3.63c0.01,0.74,0.02,1.49,0.03,2.23    c-0.01-0.74-0.02-1.49-0.03-2.23c-3.67,1.69-7.92,1.85-11.31,4.28c-3.15-0.01-5.86,1.42-8.67,2.55c-2.28,1.09-4.64,1.69-6.76-0.14    c-3.16-2.72-6.91-3.93-10.81-5.07c-8.86-2.57-18.05-3.36-27.04-5.24c-9.06-1.9-13.09-7.61-9.85-14.92    c0.98-2.21,2.22-4.36,3.66-6.3c12.96-17.48,29.49-30.93,48.08-41.99c1.43-0.85,2.59-1.65,4.56-0.09c2.07,1.64,4.13-0.68,5.99-1.8    c0.7-0.42,1.37-1.2,0.78-2.18c-1.12-1.86-2.93-2.12-4.9-2c-3.86,0.24-7.27,1.84-10.4,3.85c-14.57,9.32-28.02,20.02-39.8,32.74    c-5.59,6.05-10.73,12.39-13.34,20.36s-0.93,11.76,6.7,15.1c6.01,2.63,12.53,2.85,18.88,3.86c7.67,1.22,15.28,2.67,22.22,6.42    c0.58,1.86-0.86,2.07-2.05,2.57c-15.74,6.54-30.76,14.41-44.72,24.22c-5.59,3.46-10.6,7.59-14.43,12.97    c-0.81,1.14-2.39,2.29-1.24,4.13c0.96,1.53,2.51,1.17,3.88,1.11c5.87-0.24,11.57-1.37,17.01-3.66c1.15-0.01,2.31-0.02,3.29-0.78    l0.13-0.02c13.87-3.91,26.61-10.06,37.97-18.99c0.33-0.3,0.66-0.6,0.99-0.9c0.27-0.27,0.53-0.54,0.8-0.8l0.06-0.06    c0.27-0.27,0.54-0.54,0.8-0.81l0.06-0.06c0.27-0.27,0.54-0.54,0.8-0.8l0.06-0.06c0.23-0.26,0.45-0.52,0.68-0.78    c0.09-0.25,0.17-0.5,0.26-0.74c0.15-0.32,0.31-0.64,0.46-0.96c5.01-3.24,3.87-8.29,3.83-13.01c0.29-0.28,0.58-0.56,0.88-0.84l0,0    c6.81-2.17,13.6-4.38,20.43-6.46c1.34-0.41,2.17-1.2,2.94-2.21c2.74,0.89,2.67,2.12,0.72,4.01c-2.37,2.29-4.56,4.78-6.73,7.26    c-2.2,2.52-1.63,4.45,1.16,6.34c3.38,2.29,6.15,0.39,9.12-0.69c1.71-0.75,3.5-1.36,4.68-2.96c1.86-1.03,3.52-1.91,5.95-0.93    c2.33,0.94,4.92,0.01,6.86-1.63c2.89-2.45,5.05-5.78,9.09-6.8c1.07-0.27,1.78-1.63,1.36-2.86    C611.72,265.65,610.37,266.1,609.25,266.08z M548.44,285.76c-1.55,2.31-3.76,4.16-5.69,6.22c-10.44,8.87-22.86,13.89-35.61,18.27    c-4.44,0.84-8.88,1.71-13.32,2.51c-0.91,0.17-2.1,0.67-2.64-0.5c-0.44-0.97,0.63-1.47,1.2-2.03c1.75-1.75,3.57-3.44,5.36-5.15    c11.51-8.38,23.58-15.85,36.58-21.7c5.06-2.28,9.92-5.11,15.41-6.37c-0.06-0.55-0.21-1.04-0.43-1.5c0.22,0.46,0.38,0.95,0.43,1.5    C553.28,280.48,550.17,283.19,548.44,285.76z"/><path class="st0" d="M631.44,226.56c1.18-4.98,3.55-9.63,3.97-14.81c1.87-3.68,2.61-7.72,3.45-11.7c0.27-1.28,0.48-3.01-1.67-3.25    c-1.69-0.18-2.7,0.66-3.08,2.26c-0.23,0.96-0.37,1.94-0.55,2.92c-4.37,14.66-9.86,29.03-12.02,44.29    c-2.74,7.49-2.84,15.48-4.38,23.19c-1.22,2.27-0.55,4.75-0.76,7.13l-0.01,0.03c-0.23,1.71-0.46,3.42-0.69,5.12    c-0.01,0.59-0.02,1.18-0.04,1.78c-1.56,7.8-1.78,15.64-1.24,24.2c3.12-4.03,4.93-12.62,5.48-24.2    c1.78-10.31,3.56-20.61,5.34-30.92l-0.02-0.05c0.8-1.11,0.46-2.4,0.57-3.62C627.67,241.49,629.67,234.05,631.44,226.56z"/></g></g></svg>