<svg xmlns="http://www.w3.org/2000/svg" xmlns:xlink="http://www.w3.org/1999/xlink" xmlns:xodm="http://www.corel.com/coreldraw/odm/2003" xml:space="preserve" version="1.1" style="shape-rendering:geometricPrecision; text-rendering:geometricPrecision; image-rendering:optimizeQuality; fill-rule:evenodd; clip-rule:evenodd" viewBox="0 0 5197.49 6739.38"><defs><style type="text/css">         .fil0 {fill:white;fill-rule:nonzero}       </style></defs><g id="Layer_x0020_1"><metadata id="CorelCorpID_0Corel-Layer"></metadata><path class="fil0" d="M3.57 6036.08c-4.83,-12.39 -4.69,-32.65 0,-45.19 7.25,-18.89 51.39,-22.67 267.67,-22.67l259.07 0 -46.25 -52.6c-51.69,-58.95 -66.96,-116.38 -59.85,-227.02 4.38,-69.82 7.86,-75.87 46.25,-80.41l41.56 -4.69 0 107.46c0,94.01 4.68,112.15 37.03,144.65 32.65,32.49 50.48,37.03 147.82,37.03 166.86,0 177.89,-11.94 177.89,-192.41l0 -145.25 -203.28 -205.25c-119.86,-121.06 -212.97,-228.38 -226.72,-261.48 -29.47,-70.44 -30.23,-208.12 -1.66,-276.44 35.37,-84.79 99.3,-113.06 254.83,-113.21 217.04,0 267.52,47.01 267.52,248.63l0 114.11 -45.34 0 -45.35 0 0 -117.89c0,-71.49 -7.1,-125 -18.14,-136.03 -11.49,-11.48 -69.37,-18.14 -157.79,-18.14 -127.26,0 -141.93,3.03 -163.23,33.55 -27.21,38.85 -31.59,169.74 -7.71,233.67 8.77,23.43 103.53,131.04 210.85,239.11 107.31,108.06 202.07,215.68 210.84,239.11 8.77,23.27 15.87,107.31 15.87,186.66 0,143.74 -0.15,144.19 -51.39,195.43l-51.39 51.38 164.75 0 164.75 0 0 -634.8 0 -634.8 227.77 0 227.63 0 -4.69 41.56c-5.59,47.61 6.65,44.74 -201.78,47.31l-159 1.81 4.08 230.49 4.23 230.5 132.26 4.39c128.62,4.23 132.25,5.29 132.25,40.96 0,35.67 -3.63,36.73 -132.25,40.96l-132.26 4.38 -4.08 268.28 -4.23 268.28 159.16 1.82c208.27,2.57 196.03,-0.3 201.62,47.31l4.69 41.56 145.55 0 145.4 0 -48.37 -47.31c-26.75,-26.15 -52.14,-61.82 -56.52,-79.35 -4.39,-17.68 -5.9,-261.48 -3.48,-541.85l4.38 -509.81 41.86 -41.87c39.45,-39.44 51.09,-42.17 196.34,-47.16 124.69,-4.23 163.69,-0.3 202.83,20.85 69.98,37.64 97.79,106.86 92.5,230.05 -4.38,98.85 -5.89,102.17 -46.09,106.86l-41.56 4.69 0 -105.04c0,-154.17 -16.33,-169.13 -188.03,-170.65 -113.36,-1.05 -138.45,3.18 -154.92,25.7 -15.42,21.01 -19.8,138.45 -19.8,521.9 0,429.7 3.17,497.87 23.73,518.57 17.98,17.99 56.07,23.73 157.79,23.73 166.11,0 181.23,-14.2 181.23,-169.58l0 -102.48 45.34 0 45.35 0 0 97.19c0,113.51 -17.08,166.56 -71.79,223.99l-39.6 41.56 120.76 0 120.76 0 140.41 -631.02c77.23,-347.03 146.91,-635.11 155.07,-640.1 8.01,-4.99 36.12,-8.31 62.42,-7.55 37.03,1.21 50.48,9.97 59.7,39.3 6.5,20.85 68.31,306.37 137.24,634.8l125.45 597.02 82.23 0 82.22 0 3.93 -631.03 3.93 -631.03 43.23 0c34,0 77.38,32.65 205.86,154.92 89.48,85.25 172.01,157.19 183.34,159.76 16.48,3.93 20.71,-27.21 20.71,-154.92l0 -159.76 45.34 0 45.35 0 0 634.8 0 634.8 74.51 0c58.04,0 76.32,-5.9 82.37,-26.45 10.73,-36.28 266.31,-1219.43 266.31,-1232.58 0,-5.89 30.23,-10.58 67.26,-10.58 64.09,0 67.87,2.42 76.63,49.12 5.15,27.05 65,311.06 133.16,631.03l123.79 581.9 237.9 4.23 237.9 4.08 0 35.82c0,19.65 -9.97,39.6 -22.06,44.29 -12.1,4.53 -1178.78,8.61 -2592.57,9.06 -2265.05,0.45 -2571.72,-2.11 -2579.28,-22.07zm3072.45 -94.31c-4.23,-14.51 -15.41,-65.6 -24.79,-113.36l-17.23 -86.91 -194.37 0 -194.37 0 -17.23 86.91c-9.38,47.76 -20.56,98.85 -24.79,113.36 -6.96,24.33 11.33,26.45 236.38,26.45 225.06,0 243.34,-2.11 236.39,-26.45zm719.15 -370.31l4.23 -396.75 -173.81 -168.22c-95.52,-92.65 -178.96,-165.35 -185.16,-161.72 -14.05,8.31 -15.26,1099.42 -1.2,1113.33 5.44,5.6 86.91,10.12 180.77,10.12l170.94 0 4.23 -396.75zm827.67 385.42c-0.45,-10.13 -16.02,-85.25 -37.94,-181.37 -7.41,-33.1 -12.85,-34 -201.32,-34l-193.46 0 -17.84 96.28c-9.68,52.9 -17.69,103.84 -17.69,113.36 0,11.94 69.68,17.07 234.27,17.07 128.78,0 234.12,-5.14 233.97,-11.33zm-1616.79 -362.75c-84.95,-444.21 -159.31,-773.86 -169.13,-749.97 -13.15,32.04 -163.54,754.96 -163.54,786.25 0,15.87 37.64,20.4 171.85,20.4l171.7 0 -10.88 -56.68zm1550.89 21.01c-14.36,-57.29 -160.51,-775.22 -160.51,-788.52 0,-6.65 -3.47,-8.77 -7.56,-4.54 -6.19,6.2 -173.81,798.65 -173.81,821.77 0,3.78 78.9,6.95 175.48,6.95l175.48 0 -9.07 -35.67zm-2072.49 -1644.15c-203.14,-19.2 -412.93,-120.76 -573.14,-277.5 -112.45,-110.03 -188.93,-232.31 -245.76,-393.13l-42.62 -120.76 -4.38 -1143.25c-4.84,-1288.2 -6.2,-1268.85 104.9,-1494.06 81.77,-165.96 254.67,-343.55 416.4,-427.89 569.06,-296.7 1250.72,8.31 1410.02,631.03 29.17,113.96 30.38,165.8 30.08,1238.77 -0.3,1238.93 0,1235 -96.43,1434.36 -115.63,239.42 -327.38,425.62 -575.86,506.94 -148.88,48.82 -261.18,60.76 -423.21,45.5zm387.23 -93.86c63.33,-19.5 131.04,-46.7 150.69,-60.46 33.4,-23.43 8.01,-24.94 -413.68,-24.94 -246.97,0 -449.2,3.18 -449.2,7.11 0,12.85 96.12,57.74 181.37,84.79 131.19,41.41 385.26,38.39 530.82,-6.5zm348.99 -201.77c31.44,-30.83 57.29,-61.36 57.29,-68.01 0,-6.65 -306.07,-12.09 -680.15,-12.09 -383.6,0 -680.15,5.89 -680.15,13.3 0,7.4 27.2,37.94 60.46,68.01l60.61 54.71 562.26 0 562.4 0 57.28 -55.92zm163.24 -189.69c16.47,-27.05 29.93,-54.26 30.08,-60.46 0,-6.2 -367.28,-11.33 -816.18,-11.33 -448.9,0 -816.18,3.47 -816.18,7.7 0,4.38 15.26,31.44 34,60.31l34.01 52.59 752.1 0.15 752.24 0.15 29.93 -49.12zm83.73 -184.7c12.09,-28.86 21.91,-59.4 21.91,-68.01 0,-10.58 -289.14,-15.56 -892.81,-15.56l-892.66 0 10.58 34c5.74,18.74 16.33,49.27 23.28,68.01l12.69 34 847.62 0 847.47 0 21.92 -52.45zm42.93 -167.92c5.14,-13.15 9.22,-40.35 9.22,-60.46l0 -36.58 -207.82 -0.46c-938.91,-1.66 -1626.92,1.36 -1632.82,7.25 -3.77,3.78 -2.41,30.99 3.18,60.46l9.97 53.65 904.6 0c810.89,0 905.51,-2.41 913.67,-23.88zm-1411.53 -631.03c0,-252.26 -2.87,-461.29 -6.2,-464.77 -3.48,-3.48 -98.7,-4.23 -211.6,-1.81l-205.41 4.68 0 460.08 0 460.23 211.6 0 211.61 0 0 -458.42zm468.54 -217.95l0 -676.21 -202.98 203.89c-111.7,112.31 -204.35,214.32 -205.86,226.72 -1.51,12.39 -1.96,225.05 -1.06,472.33l1.82 449.65 204.05 0 204.04 0 0 -676.37zm483.66 210.39l0 -465.98 -204.95 -202.84c-112.76,-111.54 -207.97,-205.7 -211.61,-209.18 -3.63,-3.48 -6.65,297.6 -6.65,668.81l0 675.16 211.6 0 211.6 0 0 -465.98zm468.55 4.99l0 -460.99 -204.05 0 -204.05 0 0 460.99 0 460.99 204.05 0 204.05 0 0 -460.99zm-1519.6 -570.27c-22.52,-26.75 -104.75,-108.97 -182.73,-182.73l-141.62 -134.21 0 172.91c0,94.91 4.54,177.29 10.13,182.73 5.44,5.59 87.66,10.12 182.73,10.12l172.6 0 -41.11 -48.82zm1519.6 -132.56c0,-99.75 -1.82,-181.37 -4.08,-181.37 -2.12,0 -85.4,81.62 -184.85,181.37l-180.92 181.37 185 0 184.85 0 0 -181.37zm-1042.29 -339.16c-41.26,-41.26 -77.84,-71.95 -81.01,-68.17 -10.59,11.94 -176.54,444.82 -176.54,460.08 0,8.16 74.82,-59.85 166.26,-150.99l166.41 -165.8 -75.12 -75.12zm414.89 162.63c-47.31,-123.19 -88.87,-227.02 -92.35,-230.64 -3.63,-3.63 -40.35,26.75 -81.77,67.56l-75.42 74.36 161.88 162.33c89.02,89.33 164.6,159.76 167.77,156.44 3.32,-3.33 -32.65,-106.86 -80.11,-230.04zm-1036.85 -119.56c-84.19,-182.12 -159.15,-337.65 -166.41,-345.51 -7.71,-8.32 -13.3,64.08 -13.3,172.3l0 186.66 161.42 163.84c88.72,90.08 163.69,161.57 166.41,158.85 2.73,-2.72 -63.93,-154.01 -148.12,-336.15zm243.5 -40.5l0 -381.79 -186.97 -186.51c-102.94,-102.63 -191.36,-179.71 -196.49,-171.39 -5.15,8.46 -17.39,65.74 -26.91,127.56l-17.38 112.15 202.54 440.74c111.39,242.43 207.67,440.89 213.87,441.04 6.2,0 11.34,-171.7 11.34,-381.78zm1417.43 -131.65l-4.24 -187.57 -157.64 339.32c-86.76,186.51 -160.66,345.97 -164.45,354.28 -3.78,8.31 69.22,-60 161.88,-151.75l168.68 -166.86 -4.23 -187.42zm-473.09 -179.41c-4.53,-4.69 -50.33,33.55 -101.72,84.94l-93.26 93.26 20.4 57.13c11.19,31.43 55.16,145.55 97.64,253.62l77.24 196.49 4.08 -338.57c2.26,-186.21 0.3,-342.19 -4.39,-346.88zm298.81 209.94l180.92 -386.02 -8.31 -91.14c-4.69,-50.18 -15.87,-110.94 -25.09,-135.12l-16.63 -43.98 -180.77 180.31 -180.62 180.16 0.61 385.57c0.6,362.75 2.12,383 24.79,340.98 13.45,-24.63 105.65,-218.56 205.1,-430.76zm-1006.92 -0.6c6.05,-30.83 -9.37,-54.41 -84.18,-128.02l-91.6 -90.23 0.75 339.62 0.6 339.62 83.43 -211.6c45.95,-116.38 86.91,-228.53 90.99,-249.39zm-24.03 -560.9c-108.97,-318.31 -201.02,-581.6 -204.5,-585.08 -15.57,-15.72 -164.14,113.51 -227.62,198 -71.65,95.37 -127.72,193.16 -127.72,222.79 0,17.23 744.39,756.33 753.15,747.86 2.73,-2.72 -84.33,-265.26 -193.31,-583.57zm993.17 -6.05c76.93,-73.16 139.81,-145.25 139.81,-160.21 0,-37.78 -91.29,-189.23 -163.39,-271.15 -58.79,-66.81 -179.25,-161.12 -190.14,-148.88 -10.43,11.65 -402.19,1147.64 -402.19,1166.08 0,10.13 107.16,-87.51 238.05,-217.04 130.89,-129.53 300.93,-295.48 377.86,-368.79zm-743.02 -729.12c-13.91,-13.75 -204.5,25.24 -289.75,59.55 -82.22,32.94 -89.32,39.45 -87.36,80.71 1.82,35.97 313.93,971.71 363.05,1087.79 7.25,17.23 14.36,-237.45 16.62,-595.65 2.12,-344.16 1.06,-628.76 -2.56,-632.39zm278.55 676.82c114.72,-328.28 191.81,-570.11 183.95,-577.97 -24.18,-24.19 -220.22,-84.19 -308.94,-94.62l-86.91 -10.13 0 630.73c0,347.03 3.17,627.7 7.25,623.77 3.93,-4.08 95.97,-261.32 204.64,-571.78zm-1123.07 5996.75l0 -212.51 40.96 0c8.34,0 15.02,2.12 20.07,6.43 5.03,4.3 8.97,10.93 11.81,19.89 2.87,8.91 4.3,18.26 4.3,28.05 0,9.05 -1.27,17.6 -3.79,25.62 -2.52,8.01 -6.33,14.5 -11.44,19.44 6.61,3.76 11.69,10.2 15.22,19.29 3.55,9.05 5.33,19.79 5.33,32.16 0,9.99 -1.09,19.24 -3.25,27.8 -2.16,8.56 -4.82,15.14 -8,19.78 -3.18,4.6 -7.17,8.11 -11.94,10.49 -4.81,2.38 -10.68,3.56 -17.63,3.56l-41.65 0zm14.48 -123.17l23.61 0c6.4,0 11,-0.84 13.77,-2.48 3.69,-2.12 6.46,-5.69 8.31,-10.63 1.86,-4.94 2.8,-11.13 2.8,-18.6 0,-7.07 -0.87,-13.31 -2.62,-18.65 -1.73,-5.39 -4.21,-9.1 -7.44,-11.07 -3.22,-1.98 -8.76,-2.97 -16.59,-2.97l-21.83 0 0 64.41zm0 98.24l27.19 0c4.68,0 7.95,-0.34 9.86,-1.04 3.3,-1.14 6.1,-3.07 8.34,-5.79 2.23,-2.72 4.06,-6.68 5.51,-11.87 1.44,-5.2 2.16,-11.18 2.16,-17.96 0,-7.97 -1.04,-14.84 -3.15,-20.73 -2.09,-5.89 -4.98,-10 -8.69,-12.37 -3.68,-2.38 -9.02,-3.56 -15.96,-3.56l-25.25 0 0 73.31zm182.75 24.93l0 -212.51 78.82 0 0 24.93 -64.33 0 0 65.3 60.22 0 0 24.93 -60.22 0 0 72.42 66.92 0 0 24.93 -81.41 0zm184.06 0l41.87 -212.51 15.88 0 44.46 212.51 -16.46 0 -12.63 -64.4 -45.96 0 -11.84 64.4 -15.32 0zm31.4 -87.26l37.19 0 -11.38 -58.92c-3.43,-17.91 -6.02,-32.7 -7.82,-44.38 -1.5,13.86 -3.5,27.46 -6.02,40.91l-11.97 62.38zm254.64 12.71l14.48 7.13c-3.02,23.1 -8.46,40.67 -16.31,52.79 -7.85,12.12 -17.45,18.2 -28.81,18.2 -11.74,0 -21.29,-4.65 -28.66,-14 -7.37,-9.3 -12.96,-22.8 -16.79,-40.47 -3.84,-17.71 -5.77,-36.65 -5.77,-56.94 0,-22.12 2.16,-41.4 6.5,-57.88 4.34,-16.47 10.52,-28.99 18.52,-37.55 8,-8.56 16.82,-12.81 26.42,-12.81 10.92,0 20.1,5.39 27.52,16.22 7.44,10.83 12.63,26.02 15.55,45.61l-14.17 6.53c-2.52,-15.43 -6.2,-26.71 -11,-33.74 -4.8,-7.07 -10.85,-10.58 -18.15,-10.58 -8.36,0 -15.37,3.91 -20.98,11.73 -5.62,7.81 -9.58,18.35 -11.84,31.51 -2.29,13.21 -3.43,26.81 -3.43,40.81 0,18.06 1.35,33.84 4.04,47.29 2.7,13.5 6.89,23.54 12.58,30.23 5.69,6.67 11.84,9.99 18.47,9.99 8.08,0 14.89,-4.55 20.48,-13.6 5.59,-9.1 9.37,-22.56 11.35,-40.47zm127.59 74.55l0 -212.51 14.49 0 0 87.56 56.4 0 0 -87.56 14.48 0 0 212.51 -14.48 0 0 -100.03 -56.4 0 0 100.03 -14.49 0zm231.87 0l0 -187.58 -35.97 0 0 -24.93 86.43 0 0 24.93 -35.98 0 0 187.58 -14.48 0zm152.85 -103.44c0,-35.23 4.88,-62.83 14.61,-82.76 9.73,-19.93 22.28,-29.88 37.68,-29.88 10.08,0 19.16,4.7 27.26,14.04 8.07,9.36 14.25,22.41 18.49,39.18 4.24,16.72 6.38,35.72 6.38,56.94 0,21.52 -2.24,40.81 -6.71,57.78 -4.47,17.02 -10.8,29.88 -18.98,38.58 -8.21,8.76 -17.05,13.11 -26.53,13.11 -10.29,0 -19.46,-4.84 -27.57,-14.49 -8.08,-9.65 -14.23,-22.81 -18.39,-39.53 -4.17,-16.67 -6.25,-34.33 -6.25,-52.98zm14.94 0.5c0,25.57 3.53,45.71 10.59,60.4 7.06,14.69 15.93,22.06 26.6,22.06 10.88,0 19.79,-7.42 26.83,-22.26 7.01,-14.84 10.52,-35.91 10.52,-63.22 0,-17.26 -1.5,-32.35 -4.49,-45.22 -3,-12.86 -7.4,-22.85 -13.16,-29.92 -5.79,-7.07 -12.27,-10.64 -19.47,-10.64 -10.21,0 -19,6.83 -26.37,20.48 -7.37,13.65 -11.05,36.41 -11.05,68.32zm221.53 102.94l-28.74 -212.51 14.97 0 16.38 139.35c1.78,14.59 3.36,29.09 4.7,43.44 2.87,-22.66 4.55,-35.72 5.03,-39.18l20.63 -143.61 17.41 0 15.65 107.59c3.83,26.72 6.68,51.79 8.51,75.2 1.45,-13.41 3.31,-28.8 5.57,-46.16l17.05 -136.63 14.51 0 -29.88 212.51 -14.05 0 -22.89 -161.91c-1.93,-13.55 -3.1,-21.86 -3.53,-24.93 -1.25,9.69 -2.36,18.01 -3.33,24.88l-22.89 161.96 -15.09 0zm219.54 0l0 -212.51 14.84 0 57.27 166.81 0 -166.81 13.87 0 0 212.51 -14.84 0 -57.27 -166.81 0 166.81 -13.88 0z"></path></g></svg>